<svg xmlns="http://www.w3.org/2000/svg" xmlns:xlink="http://www.w3.org/1999/xlink" id="svg" width="400" height="155.43478260869566" viewBox="0, 0, 400,155.43478260869566"><g id="svgg"><path id="path0" d="M16.033 16.033 C 15.923 16.143,15.833 16.368,15.833 16.533 C 15.833 16.765,15.701 16.833,15.250 16.833 C 14.694 16.833,14.667 16.861,14.667 17.417 C 14.667 17.993,14.658 18.000,13.949 18.000 C 12.953 18.000,12.680 18.253,12.557 19.292 C 12.459 20.119,12.428 20.167,11.977 20.167 C 11.557 20.167,11.500 20.227,11.500 20.671 C 11.500 21.094,11.422 21.191,11.015 21.272 C 10.708 21.333,10.494 21.501,10.434 21.726 C 10.290 22.262,10.319 135.719,10.463 135.945 C 10.531 136.052,10.792 136.192,11.043 136.255 C 11.409 136.347,11.500 136.465,11.500 136.851 C 11.500 137.271,11.562 137.333,11.977 137.333 C 12.428 137.333,12.459 137.381,12.557 138.208 C 12.680 139.247,12.953 139.500,13.949 139.500 C 14.658 139.500,14.667 139.507,14.667 140.083 C 14.667 140.637,14.696 140.667,15.239 140.667 C 15.739 140.667,15.818 140.724,15.864 141.124 C 15.905 141.480,16.028 141.605,16.417 141.688 C 17.071 141.827,381.386 141.862,382.226 141.724 C 382.737 141.639,382.902 141.521,383.034 141.142 C 383.164 140.767,383.301 140.667,383.683 140.667 C 384.125 140.667,384.167 140.616,384.167 140.083 L 384.167 139.500 384.988 139.500 C 386.056 139.500,386.333 139.223,386.333 138.155 L 386.333 137.333 386.917 137.333 C 387.449 137.333,387.500 137.291,387.500 136.850 C 387.500 136.468,387.600 136.331,387.975 136.200 C 388.694 135.950,388.663 138.565,388.663 78.750 C 388.663 18.935,388.694 21.550,387.975 21.300 C 387.600 21.169,387.500 21.032,387.500 20.650 C 387.500 20.209,387.449 20.167,386.917 20.167 L 386.333 20.167 386.333 19.345 C 386.333 18.277,386.056 18.000,384.988 18.000 L 384.167 18.000 384.167 17.427 C 384.167 16.904,384.120 16.850,383.632 16.802 C 383.219 16.762,383.074 16.655,382.999 16.333 L 382.902 15.917 199.568 15.875 C 57.112 15.842,16.189 15.878,16.033 16.033 M378.481 20.348 C 380.252 20.639,380.328 20.661,380.634 20.963 C 380.794 21.121,381.232 21.450,381.605 21.694 C 382.736 22.435,383.744 24.032,383.973 25.449 C 384.279 27.344,384.248 130.653,383.941 132.266 C 383.698 133.541,382.867 134.895,381.841 135.687 C 381.559 135.905,381.101 136.261,380.824 136.479 C 379.659 137.393,392.321 137.333,199.500 137.333 C 6.730 137.333,19.361 137.392,18.171 136.480 C 16.542 135.230,15.867 134.475,15.210 133.167 C 14.863 132.476,14.649 28.225,14.990 25.629 C 15.197 24.047,16.016 22.725,17.472 21.619 C 18.796 20.614,18.778 20.623,20.079 20.405 C 21.699 20.133,376.835 20.077,378.481 20.348 M28.574 26.733 C 28.121 26.953,27.450 27.226,27.083 27.341 C 26.717 27.455,26.205 27.725,25.946 27.941 C 25.686 28.157,25.401 28.333,25.311 28.333 C 25.009 28.333,23.303 30.074,22.975 30.715 C 22.797 31.064,22.543 31.391,22.410 31.442 C 22.278 31.493,22.056 31.916,21.918 32.382 C 21.779 32.848,21.497 33.572,21.291 33.990 L 20.917 34.750 20.917 78.250 L 20.917 121.750 21.271 122.417 C 21.465 122.783,21.746 123.506,21.895 124.024 C 22.044 124.541,22.275 125.006,22.409 125.057 C 22.542 125.108,22.799 125.435,22.979 125.784 C 23.582 126.952,25.922 128.859,27.238 129.255 C 27.638 129.375,28.217 129.611,28.525 129.779 C 29.065 130.073,34.720 130.083,199.500 130.083 L 369.917 130.083 370.584 129.726 C 370.951 129.529,371.555 129.287,371.925 129.187 C 372.295 129.087,372.744 128.871,372.924 128.706 C 373.103 128.541,373.512 128.243,373.833 128.043 C 374.571 127.585,375.489 126.622,376.061 125.708 C 376.305 125.319,376.566 125.000,376.642 125.000 C 376.718 125.000,376.874 124.681,376.989 124.292 C 377.105 123.902,377.398 123.142,377.641 122.602 L 378.083 121.621 378.083 78.185 L 378.083 34.750 377.639 33.833 C 377.395 33.329,377.111 32.598,377.008 32.208 C 376.904 31.819,376.749 31.500,376.662 31.500 C 376.575 31.500,376.305 31.181,376.061 30.792 C 375.474 29.854,374.371 28.706,373.750 28.386 C 373.475 28.244,373.100 27.996,372.917 27.834 C 372.733 27.673,372.284 27.445,371.919 27.328 C 371.553 27.211,370.878 26.940,370.419 26.726 L 369.583 26.337 199.491 26.335 L 29.399 26.333 28.574 26.733 M369.358 30.227 C 370.091 30.369,370.645 30.592,370.995 30.887 C 371.287 31.133,371.576 31.335,371.638 31.336 C 372.196 31.349,373.894 33.712,374.153 34.836 C 374.392 35.873,374.393 120.620,374.154 121.667 C 373.898 122.789,371.992 125.333,371.407 125.333 C 371.303 125.333,371.088 125.477,370.929 125.653 C 370.198 126.461,380.165 126.417,199.500 126.417 C 20.996 126.417,28.746 126.448,28.152 125.732 C 28.043 125.601,27.721 125.378,27.435 125.236 C 27.150 125.094,26.654 124.648,26.333 124.245 C 26.012 123.841,25.590 123.312,25.394 123.069 C 24.657 122.152,24.667 122.778,24.667 78.250 C 24.667 33.371,24.650 34.325,25.436 33.411 C 25.654 33.156,25.833 32.894,25.833 32.828 C 25.833 32.648,27.142 31.333,27.320 31.333 C 27.405 31.333,27.714 31.131,28.008 30.885 C 28.346 30.600,28.914 30.362,29.562 30.234 C 31.111 29.928,367.779 29.921,369.358 30.227 " stroke="none" fill="#161616" fill-rule="evenodd"></path><path id="path1" d="M95.167 62.430 C 94.662 62.666,93.852 62.925,93.365 63.005 C 92.469 63.154,92.316 63.218,90.657 64.142 C 89.563 64.750,87.506 66.683,87.085 67.498 C 86.921 67.813,86.618 68.204,86.411 68.368 C 86.188 68.543,85.952 69.007,85.834 69.499 C 85.724 69.958,85.578 70.333,85.510 70.333 C 85.301 70.333,85.031 71.083,84.751 72.439 C 84.603 73.153,84.422 73.815,84.349 73.910 C 83.620 74.853,83.621 83.815,84.349 84.757 C 84.423 84.853,84.626 85.566,84.800 86.341 C 84.985 87.167,85.298 88.018,85.558 88.398 C 85.801 88.755,86.000 89.132,86.000 89.236 C 86.000 89.879,89.446 93.488,90.068 93.496 C 90.242 93.498,90.648 93.700,90.969 93.945 C 91.368 94.250,91.942 94.458,92.782 94.604 C 93.493 94.728,94.194 94.962,94.445 95.159 C 95.157 95.719,100.625 95.677,101.240 95.107 C 101.563 94.807,101.932 94.690,102.802 94.609 C 104.122 94.486,104.944 94.232,105.404 93.803 C 105.583 93.637,105.810 93.500,105.908 93.500 C 106.746 93.500,106.950 88.790,106.134 88.275 C 105.926 88.143,105.710 88.204,105.222 88.533 C 104.871 88.770,104.301 89.053,103.957 89.162 C 103.612 89.271,103.224 89.467,103.093 89.597 C 102.755 89.935,100.484 90.334,98.917 90.330 C 95.966 90.323,94.725 89.885,93.177 88.308 C 91.634 86.736,91.344 86.212,90.556 83.583 C 90.045 81.876,90.116 74.431,90.650 73.764 C 90.729 73.665,90.991 73.035,91.231 72.365 C 91.783 70.823,93.218 68.980,94.392 68.305 C 96.215 67.257,96.019 67.300,98.754 67.360 L 101.297 67.417 102.051 67.958 C 102.465 68.256,102.919 68.500,103.059 68.500 C 103.199 68.500,103.365 68.582,103.427 68.683 C 103.573 68.919,105.756 70.333,105.975 70.333 C 106.775 70.333,106.677 66.026,105.854 65.066 C 105.076 64.157,103.140 63.000,102.398 63.000 C 102.151 63.000,101.529 62.797,101.016 62.548 C 99.606 61.865,96.511 61.802,95.167 62.430 M156.833 62.111 C 156.696 62.165,156.258 62.355,155.859 62.533 C 155.461 62.711,154.749 62.920,154.276 62.998 C 152.188 63.343,149.465 65.270,148.032 67.417 C 147.787 67.783,147.492 68.143,147.377 68.217 C 147.099 68.393,146.667 69.241,146.667 69.608 C 146.667 69.768,146.483 70.165,146.258 70.491 C 146.012 70.849,145.781 71.521,145.675 72.186 C 145.579 72.793,145.332 73.656,145.125 74.103 C 144.505 75.447,144.552 83.067,145.190 84.754 C 145.432 85.393,145.709 86.346,145.806 86.872 C 145.902 87.397,146.119 87.975,146.288 88.156 C 146.456 88.337,146.696 88.770,146.821 89.118 C 147.209 90.203,150.269 93.500,150.888 93.500 C 151.057 93.500,151.508 93.716,151.889 93.981 C 152.375 94.317,152.946 94.518,153.794 94.649 C 154.589 94.773,155.117 94.951,155.335 95.169 C 155.888 95.722,161.465 95.671,162.073 95.107 C 162.397 94.807,162.765 94.690,163.636 94.609 C 164.915 94.490,165.775 94.242,166.209 93.866 C 166.371 93.727,166.671 93.529,166.876 93.427 C 167.288 93.221,167.466 92.463,167.488 90.815 C 167.519 88.421,167.135 87.758,166.141 88.492 C 165.873 88.690,165.342 88.963,164.960 89.097 C 164.579 89.232,164.143 89.454,163.992 89.591 C 163.329 90.190,159.695 90.511,157.374 90.176 C 156.003 89.978,153.333 88.273,153.333 87.597 C 153.333 87.490,153.071 87.124,152.750 86.784 C 152.429 86.444,152.167 86.015,152.167 85.831 C 152.167 85.647,152.022 85.178,151.844 84.790 C 151.243 83.472,151.168 82.803,151.175 78.750 C 151.180 75.822,151.241 74.594,151.405 74.167 C 151.527 73.846,151.833 73.031,152.083 72.356 C 152.334 71.680,152.661 70.994,152.811 70.830 C 153.170 70.438,154.206 69.204,154.324 69.027 C 154.540 68.703,156.605 67.495,157.101 67.402 C 158.493 67.141,162.289 67.400,162.697 67.784 C 162.912 67.986,163.361 68.265,163.694 68.404 C 164.027 68.543,164.401 68.753,164.525 68.870 C 164.889 69.215,166.647 70.333,166.825 70.333 C 167.188 70.333,167.333 69.593,167.333 67.745 L 167.333 65.801 166.655 65.031 C 166.282 64.607,165.776 64.162,165.530 64.043 C 165.284 63.924,164.783 63.641,164.417 63.416 C 164.050 63.190,163.532 63.004,163.266 63.003 C 163.000 63.001,162.362 62.795,161.849 62.543 C 160.924 62.090,157.610 61.805,156.833 62.111 M113.140 63.375 C 112.294 64.059,112.333 63.319,112.333 78.632 L 112.333 92.857 112.766 93.596 C 113.337 94.570,112.878 94.524,121.288 94.467 C 130.005 94.408,129.206 94.635,129.304 92.184 C 129.431 89.038,129.689 89.167,123.239 89.167 C 119.629 89.167,118.986 89.129,118.762 88.905 C 118.529 88.672,118.500 87.330,118.500 76.649 C 118.500 63.589,118.507 63.684,117.581 63.332 C 116.934 63.086,113.455 63.120,113.140 63.375 M133.806 63.375 C 132.961 64.059,133.000 63.313,133.000 78.698 C 133.000 94.317,132.973 93.873,133.948 94.317 C 134.468 94.554,137.200 94.553,137.993 94.316 C 139.150 93.969,139.079 94.926,139.129 79.045 C 139.178 63.360,139.197 63.693,138.247 63.332 C 137.600 63.086,134.122 63.120,133.806 63.375 M173.979 63.375 C 173.130 64.077,173.167 63.388,173.167 78.752 C 173.167 95.930,172.900 94.500,176.101 94.500 C 179.464 94.500,179.333 94.827,179.333 86.423 C 179.333 80.090,179.344 79.876,179.668 79.582 C 179.852 79.416,180.026 79.311,180.055 79.348 C 180.084 79.386,180.288 79.679,180.508 80.000 C 180.728 80.321,181.048 80.733,181.219 80.917 C 181.390 81.100,181.644 81.531,181.783 81.875 C 181.922 82.219,182.098 82.500,182.174 82.500 C 182.249 82.500,182.360 82.655,182.420 82.844 C 182.480 83.034,182.748 83.438,183.015 83.742 C 183.282 84.046,183.621 84.583,183.768 84.934 C 183.915 85.285,184.181 85.763,184.360 85.995 C 184.899 86.694,185.463 87.541,185.917 88.333 C 186.153 88.746,186.512 89.321,186.715 89.612 C 186.917 89.903,187.308 90.535,187.583 91.017 C 187.858 91.499,188.283 92.104,188.527 92.361 C 188.771 92.619,189.134 93.095,189.335 93.419 C 190.425 95.183,195.667 94.921,195.667 93.102 C 195.667 92.655,195.357 91.978,195.010 91.667 C 194.959 91.621,194.749 91.227,194.544 90.792 C 194.339 90.356,194.096 90.000,194.005 90.000 C 193.914 90.000,193.656 89.639,193.432 89.198 C 193.209 88.757,192.908 88.298,192.763 88.177 C 192.618 88.057,192.500 87.864,192.500 87.748 C 192.500 87.631,192.200 87.173,191.833 86.730 C 191.467 86.286,191.167 85.842,191.167 85.743 C 191.167 85.644,191.024 85.409,190.849 85.222 C 190.674 85.034,190.372 84.570,190.179 84.190 C 189.985 83.811,189.754 83.500,189.666 83.500 C 189.578 83.500,189.323 83.139,189.099 82.698 C 188.876 82.257,188.574 81.798,188.430 81.677 C 188.285 81.557,188.166 81.375,188.165 81.271 C 188.164 81.168,187.865 80.708,187.500 80.250 C 187.135 79.792,186.836 79.341,186.835 79.248 C 186.834 79.156,186.661 78.893,186.450 78.665 C 185.932 78.104,185.814 77.740,185.995 77.262 C 186.170 76.803,187.295 75.279,187.523 75.193 C 187.606 75.162,187.795 74.900,187.944 74.610 C 188.092 74.320,188.396 73.858,188.618 73.583 C 189.340 72.691,191.077 70.465,191.333 70.103 C 191.471 69.909,191.752 69.613,191.958 69.446 C 192.165 69.279,192.333 69.047,192.333 68.930 C 192.333 68.814,192.491 68.576,192.684 68.401 C 192.876 68.227,193.147 67.859,193.286 67.584 C 193.424 67.309,193.742 66.858,193.992 66.583 C 194.242 66.308,194.638 65.746,194.873 65.333 L 195.299 64.582 194.980 63.960 C 194.581 63.183,194.344 63.123,191.925 63.194 L 189.989 63.250 189.159 64.167 C 188.703 64.671,188.179 65.346,187.995 65.667 C 187.811 65.987,187.399 66.587,187.079 67.000 C 186.759 67.412,186.354 67.975,186.180 68.250 C 185.825 68.809,185.187 69.669,184.375 70.686 C 184.077 71.060,183.833 71.453,183.833 71.560 C 183.833 71.668,183.537 72.130,183.174 72.586 C 181.929 74.153,181.750 74.396,181.583 74.745 C 181.492 74.936,181.082 75.518,180.672 76.037 L 179.928 76.981 179.632 76.532 C 179.362 76.124,179.335 75.559,179.334 70.283 C 179.333 63.972,179.292 63.666,178.398 63.326 C 177.763 63.085,174.283 63.123,173.979 63.375 M211.937 63.420 C 211.133 64.224,211.158 63.693,211.206 78.955 C 211.259 96.024,210.962 94.500,214.233 94.500 C 217.481 94.500,217.333 94.851,217.333 87.115 C 217.333 81.291,217.353 80.867,217.638 80.609 C 218.030 80.254,228.783 80.183,229.133 80.533 C 229.282 80.682,229.333 82.302,229.333 86.792 C 229.333 94.540,229.316 94.498,232.534 94.499 C 235.944 94.501,235.667 95.895,235.667 78.750 C 235.667 61.510,236.008 63.173,232.466 63.169 C 229.273 63.165,229.333 63.040,229.333 69.652 C 229.333 74.075,229.303 74.651,229.058 74.855 C 228.565 75.264,218.145 75.183,217.684 74.766 C 217.342 74.456,217.333 74.322,217.333 69.317 L 217.333 64.185 216.931 63.718 C 216.418 63.120,212.473 62.884,211.937 63.420 M243.706 63.278 C 243.591 63.324,243.309 63.757,243.081 64.239 L 242.667 65.115 242.668 78.766 L 242.670 92.417 243.071 93.278 C 243.668 94.560,243.213 94.500,252.302 94.500 C 261.947 94.500,260.917 94.819,260.917 91.833 C 260.917 88.887,261.546 89.167,254.922 89.167 C 248.059 89.167,248.833 89.732,248.833 84.721 C 248.833 79.815,248.240 80.333,253.856 80.333 C 259.349 80.333,258.917 80.551,258.917 77.789 C 258.917 74.948,259.377 75.197,254.005 75.135 C 248.328 75.069,248.833 75.409,248.833 71.661 C 248.833 68.055,248.136 68.435,254.928 68.333 C 257.978 68.287,260.523 68.200,260.584 68.138 C 261.174 67.547,261.083 63.700,260.470 63.312 C 260.238 63.164,244.069 63.132,243.706 63.278 M267.174 63.953 L 266.673 64.750 266.670 78.883 C 266.666 95.852,266.423 94.500,269.476 94.500 C 272.904 94.500,272.833 94.637,272.833 88.031 C 272.833 82.105,272.688 82.500,274.863 82.500 C 276.269 82.500,277.145 82.688,277.654 83.098 C 278.805 84.027,279.053 84.284,279.339 84.845 C 279.518 85.194,279.852 85.758,280.082 86.097 C 280.312 86.436,280.500 86.834,280.501 86.982 C 280.501 87.129,280.763 87.771,281.084 88.407 C 281.404 89.044,281.667 89.664,281.667 89.786 C 281.667 89.907,281.849 90.287,282.071 90.629 C 282.293 90.970,282.555 91.550,282.652 91.917 C 282.749 92.283,283.116 92.996,283.467 93.500 L 284.105 94.417 286.255 94.464 C 289.027 94.524,289.333 94.413,289.333 93.343 C 289.333 92.420,288.929 90.952,288.577 90.600 C 288.440 90.464,288.179 89.869,287.997 89.279 C 287.815 88.689,287.563 88.121,287.437 88.017 C 287.311 87.912,287.113 87.472,286.996 87.038 C 286.879 86.605,286.645 86.095,286.476 85.907 C 286.307 85.718,286.046 85.205,285.897 84.767 C 285.748 84.329,285.480 83.809,285.302 83.611 C 284.420 82.627,283.174 81.389,282.834 81.158 L 282.452 80.899 283.000 80.275 C 283.302 79.932,283.819 79.539,284.149 79.402 C 284.907 79.087,286.958 76.984,287.102 76.375 C 287.161 76.123,287.343 75.692,287.506 75.417 C 289.068 72.782,287.463 66.595,284.847 65.167 C 284.595 65.029,284.156 64.762,283.870 64.574 C 283.585 64.386,282.841 64.132,282.218 64.011 C 281.594 63.890,280.944 63.669,280.774 63.521 C 280.503 63.283,279.689 63.244,274.070 63.203 L 267.674 63.155 267.174 63.953 M295.892 63.294 C 295.787 63.362,295.506 63.784,295.267 64.233 L 294.833 65.050 294.837 78.733 C 294.841 93.742,294.802 93.136,295.819 94.152 C 296.305 94.638,312.454 94.707,312.855 94.224 C 313.022 94.023,313.083 93.381,313.083 91.833 C 313.083 88.887,313.712 89.167,307.096 89.167 C 303.018 89.167,301.514 89.114,301.367 88.967 C 301.222 88.822,301.167 87.652,301.167 84.750 C 301.167 81.848,301.222 80.678,301.367 80.533 C 301.512 80.388,302.774 80.333,306.001 80.333 C 311.519 80.333,311.083 80.551,311.083 77.789 C 311.083 74.948,311.543 75.197,306.180 75.135 C 300.599 75.070,301.147 75.459,301.205 71.603 L 301.250 68.586 301.750 68.480 C 302.025 68.421,304.537 68.363,307.333 68.351 C 312.874 68.326,312.790 68.340,313.008 67.399 C 313.328 66.018,313.110 63.611,312.637 63.312 C 312.366 63.140,296.159 63.123,295.892 63.294 M279.333 68.716 C 282.135 69.961,282.661 74.240,280.245 76.140 C 279.994 76.338,279.686 76.500,279.561 76.500 C 279.436 76.500,279.333 76.573,279.333 76.662 C 279.333 77.290,273.809 77.602,273.101 77.014 C 272.748 76.721,272.693 68.990,273.042 68.703 C 273.581 68.260,278.330 68.269,279.333 68.716 " stroke="none" fill="#20ecc4" fill-rule="evenodd"></path><path id="path2" d="M20.037 21.118 C 19.828 21.158,19.466 21.368,19.232 21.585 C 18.998 21.802,18.579 22.029,18.300 22.091 C 17.999 22.157,17.759 22.333,17.709 22.524 C 17.662 22.702,17.409 22.958,17.145 23.094 C 16.873 23.235,16.667 23.478,16.667 23.658 C 16.667 23.832,16.460 24.220,16.208 24.519 L 15.750 25.064 15.704 78.490 C 15.679 107.875,15.695 132.068,15.739 132.253 C 15.784 132.438,15.963 132.743,16.137 132.929 C 16.311 133.116,16.544 133.546,16.656 133.884 C 16.768 134.223,16.961 134.500,17.085 134.500 C 17.209 134.500,17.471 134.725,17.667 135.000 C 17.862 135.275,18.157 135.500,18.322 135.500 C 18.486 135.500,18.904 135.725,19.250 136.000 L 19.879 136.500 199.517 136.500 L 379.155 136.500 379.725 136.000 C 380.038 135.725,380.412 135.500,380.557 135.500 C 380.916 135.500,382.333 134.099,382.333 133.745 C 382.333 133.589,382.559 133.204,382.834 132.890 L 383.335 132.320 383.292 78.671 L 383.250 25.022 382.792 24.543 C 382.540 24.280,382.333 23.908,382.333 23.716 C 382.333 23.493,382.122 23.241,381.750 23.022 C 381.429 22.833,381.167 22.569,381.167 22.436 C 381.167 22.302,380.948 22.145,380.680 22.086 C 380.412 22.027,379.981 21.778,379.722 21.531 L 379.250 21.083 199.833 21.064 C 101.154 21.054,20.246 21.078,20.037 21.118 M371.098 25.854 C 371.512 25.959,371.919 26.182,372.011 26.354 C 372.103 26.526,372.287 26.667,372.419 26.667 C 372.897 26.667,373.989 27.204,374.078 27.482 C 374.127 27.639,374.430 27.862,374.751 27.978 C 375.135 28.117,375.333 28.295,375.333 28.502 C 375.333 28.678,375.531 28.910,375.787 29.033 C 376.036 29.152,376.324 29.417,376.425 29.622 C 376.527 29.826,376.802 30.171,377.036 30.388 C 377.294 30.627,377.508 31.056,377.579 31.477 C 377.648 31.885,377.820 32.237,377.997 32.332 C 378.677 32.696,378.667 31.988,378.667 78.280 C 378.667 125.918,378.695 124.167,377.925 124.167 C 377.783 124.167,377.666 124.298,377.666 124.458 C 377.663 125.179,377.295 126.024,376.907 126.202 C 376.683 126.303,376.500 126.500,376.500 126.639 C 376.500 126.964,376.015 127.500,375.720 127.500 C 375.594 127.500,375.418 127.694,375.328 127.932 C 375.236 128.174,374.944 128.446,374.665 128.552 C 374.391 128.655,374.167 128.834,374.167 128.949 C 374.167 129.223,373.298 129.667,372.762 129.667 C 372.502 129.667,372.241 129.819,372.080 130.065 C 371.919 130.311,371.536 130.535,371.085 130.649 C 370.151 130.884,28.936 130.907,27.921 130.672 C 27.526 130.580,27.134 130.347,26.949 130.093 C 26.767 129.843,26.475 129.667,26.244 129.667 C 25.678 129.667,25.022 129.332,24.912 128.986 C 24.861 128.823,24.601 128.642,24.335 128.584 C 24.016 128.514,23.778 128.311,23.635 127.989 C 23.516 127.720,23.349 127.500,23.264 127.500 C 22.989 127.500,22.500 126.957,22.500 126.652 C 22.500 126.489,22.349 126.308,22.165 126.249 C 21.743 126.116,21.333 125.340,21.333 124.675 C 21.333 124.327,21.252 124.167,21.075 124.167 C 20.205 124.167,20.250 126.693,20.250 78.333 C 20.250 30.892,20.219 32.751,21.013 32.326 C 21.199 32.227,21.333 31.979,21.333 31.736 C 21.333 31.215,21.740 30.405,22.063 30.281 C 22.196 30.230,22.405 29.977,22.528 29.719 C 22.651 29.461,22.908 29.181,23.100 29.097 C 23.292 29.012,23.525 28.739,23.620 28.490 C 23.737 28.180,23.954 28.000,24.305 27.923 C 24.588 27.861,24.862 27.673,24.915 27.504 C 25.003 27.227,26.077 26.667,26.518 26.667 C 26.616 26.667,26.823 26.511,26.977 26.320 C 27.132 26.129,27.519 25.912,27.837 25.837 C 28.789 25.613,370.209 25.631,371.098 25.854 M29.071 31.329 C 28.711 31.601,28.246 31.826,28.038 31.829 C 27.788 31.832,27.604 31.977,27.499 32.252 C 27.412 32.482,27.159 32.753,26.937 32.854 C 26.707 32.959,26.496 33.230,26.445 33.485 C 26.395 33.731,26.144 34.144,25.886 34.402 L 25.417 34.871 25.417 78.253 L 25.417 121.634 25.958 122.152 C 26.256 122.437,26.500 122.838,26.501 123.043 C 26.502 123.283,26.681 123.518,27.001 123.701 C 27.275 123.857,27.500 124.095,27.500 124.229 C 27.500 124.363,27.715 124.521,27.977 124.578 C 28.240 124.636,28.601 124.819,28.780 124.986 C 28.958 125.152,29.263 125.373,29.458 125.477 C 29.721 125.618,73.227 125.667,199.549 125.667 L 369.287 125.667 369.902 125.178 C 370.241 124.909,370.722 124.644,370.971 124.590 C 371.221 124.535,371.498 124.323,371.588 124.120 C 371.677 123.916,371.919 123.676,372.125 123.585 C 372.352 123.486,372.500 123.275,372.500 123.050 C 372.500 122.845,372.725 122.448,373.000 122.167 L 373.500 121.655 373.500 78.253 L 373.500 34.851 373.072 34.388 C 372.836 34.134,372.603 33.725,372.554 33.478 C 372.504 33.229,372.325 32.993,372.150 32.947 C 371.977 32.902,371.704 32.634,371.543 32.350 C 371.361 32.031,371.116 31.835,370.898 31.834 C 370.704 31.834,370.263 31.608,369.917 31.333 L 369.287 30.833 199.507 30.833 L 29.726 30.833 29.071 31.329 M101.833 62.211 C 102.337 62.446,103.068 62.731,103.456 62.845 C 103.844 62.959,104.287 63.190,104.440 63.359 C 104.593 63.528,104.800 63.667,104.901 63.668 C 105.001 63.668,105.458 64.057,105.917 64.532 L 106.750 65.396 106.750 67.878 C 106.750 70.623,106.629 70.946,105.681 70.726 C 105.229 70.622,103.536 69.565,103.250 69.209 C 103.158 69.095,102.521 68.723,101.833 68.382 L 100.583 67.763 98.369 67.756 C 96.912 67.752,96.114 67.814,96.036 67.936 C 95.893 68.160,94.528 68.833,94.219 68.833 C 94.098 68.833,94.000 68.911,94.000 69.006 C 94.000 69.102,93.700 69.492,93.333 69.873 C 92.967 70.255,92.665 70.646,92.662 70.742 C 92.659 70.838,92.439 71.206,92.172 71.559 C 91.904 71.912,91.637 72.437,91.577 72.725 C 91.517 73.014,91.275 73.925,91.039 74.750 C 90.435 76.860,90.383 81.194,90.943 82.750 C 91.141 83.300,91.353 84.050,91.414 84.417 C 91.572 85.366,91.846 86.020,92.285 86.498 C 92.495 86.727,92.667 86.996,92.667 87.097 C 92.667 87.197,92.929 87.519,93.250 87.811 C 93.571 88.103,93.833 88.397,93.833 88.465 C 93.833 88.533,94.302 88.770,94.875 88.991 C 95.448 89.212,96.049 89.505,96.210 89.641 C 96.800 90.139,100.863 90.112,101.370 89.608 C 101.487 89.491,102.144 89.250,102.828 89.072 C 103.513 88.895,104.263 88.591,104.495 88.397 C 106.113 87.040,106.998 87.872,106.998 90.750 C 106.998 93.325,106.226 94.497,104.357 94.760 C 103.932 94.820,103.417 94.974,103.214 95.101 C 103.011 95.229,102.615 95.333,102.333 95.333 C 102.052 95.333,101.643 95.450,101.425 95.593 C 100.565 96.157,93.213 95.737,92.563 95.087 C 92.424 94.947,92.143 94.833,91.940 94.833 C 91.737 94.833,91.273 94.675,90.910 94.482 C 90.547 94.288,90.025 94.016,89.750 93.877 C 89.208 93.603,88.862 93.310,87.583 92.044 C 86.427 90.900,85.671 89.963,85.665 89.667 C 85.663 89.529,85.439 89.089,85.168 88.689 C 84.896 88.289,84.631 87.689,84.578 87.356 C 84.525 87.023,84.363 86.487,84.219 86.167 C 83.580 84.749,83.504 84.013,83.508 79.333 C 83.512 74.656,83.605 73.753,84.233 72.297 C 84.380 71.956,84.499 71.544,84.497 71.380 C 84.495 71.142,85.339 69.233,85.813 68.402 C 86.113 67.876,86.992 66.714,87.542 66.114 C 87.885 65.739,88.167 65.373,88.167 65.300 C 88.167 65.227,88.251 65.167,88.355 65.167 C 88.458 65.167,88.837 64.901,89.197 64.576 C 89.557 64.251,90.053 63.895,90.301 63.785 C 90.548 63.675,90.883 63.465,91.046 63.318 C 91.354 63.040,92.416 62.667,92.901 62.667 C 93.054 62.667,93.484 62.512,93.856 62.322 C 95.448 61.510,100.182 61.444,101.833 62.211 M162.667 62.211 C 163.171 62.446,163.920 62.737,164.331 62.859 C 164.743 62.980,165.195 63.193,165.337 63.331 C 165.478 63.470,165.797 63.690,166.047 63.820 C 166.296 63.950,166.500 64.103,166.500 64.160 C 166.500 64.217,166.762 64.542,167.083 64.882 L 167.667 65.501 167.667 67.834 C 167.667 71.303,166.871 71.648,164.249 69.316 C 162.577 67.828,158.136 67.118,156.739 68.115 C 156.458 68.315,155.914 68.577,155.530 68.697 C 155.147 68.817,154.833 68.990,154.833 69.082 C 154.834 69.175,154.608 69.475,154.333 69.750 C 152.430 71.652,151.500 74.714,151.500 79.080 C 151.500 81.225,151.562 82.108,151.743 82.541 C 151.877 82.861,152.110 83.676,152.262 84.353 C 152.526 85.524,152.944 86.500,153.182 86.500 C 153.243 86.500,153.382 86.716,153.491 86.979 C 153.784 87.685,155.015 88.749,155.941 89.095 C 156.386 89.261,156.934 89.514,157.159 89.657 C 157.759 90.038,161.938 90.036,162.222 89.654 C 162.329 89.510,162.942 89.262,163.583 89.103 C 164.225 88.944,165.021 88.628,165.352 88.400 C 166.123 87.870,166.975 87.729,167.417 88.058 C 168.163 88.614,167.824 93.626,167.021 93.897 C 166.872 93.947,166.561 94.142,166.330 94.331 C 166.099 94.520,165.513 94.737,165.028 94.814 C 164.543 94.891,164.061 95.039,163.957 95.143 C 163.852 95.248,163.500 95.336,163.175 95.339 C 162.850 95.342,162.438 95.454,162.260 95.589 C 161.483 96.176,155.036 95.865,153.667 95.174 C 153.346 95.012,152.815 94.831,152.488 94.771 C 152.161 94.712,151.640 94.476,151.331 94.248 C 151.022 94.020,150.669 93.833,150.546 93.833 C 150.311 93.833,149.676 93.283,148.335 91.917 C 147.011 90.568,146.809 90.316,146.546 89.684 C 146.408 89.354,146.160 88.893,145.995 88.660 C 145.829 88.427,145.577 87.787,145.435 87.236 C 145.292 86.686,145.053 85.990,144.904 85.690 C 144.444 84.769,144.301 82.763,144.380 78.333 C 144.451 74.313,144.517 73.710,145.005 72.583 C 145.085 72.400,145.275 71.786,145.427 71.220 C 145.580 70.653,145.837 70.047,145.999 69.872 C 146.162 69.698,146.347 69.319,146.410 69.031 C 146.473 68.742,146.820 68.150,147.179 67.714 C 147.539 67.279,147.833 66.856,147.833 66.774 C 147.833 66.631,148.758 65.708,150.091 64.522 C 150.437 64.213,150.959 63.861,151.249 63.740 C 151.539 63.618,151.863 63.415,151.969 63.287 C 152.076 63.159,152.595 62.954,153.123 62.832 C 153.651 62.710,154.372 62.468,154.724 62.294 C 156.314 61.508,161.048 61.459,162.667 62.211 M118.429 63.238 C 118.739 63.548,118.753 64.001,118.833 76.155 L 118.917 88.750 123.953 88.833 C 130.075 88.935,129.561 88.691,129.639 91.520 C 129.738 95.065,130.349 94.833,120.884 94.833 C 112.642 94.833,112.858 94.862,112.207 93.702 L 111.833 93.038 111.833 78.711 C 111.833 63.295,111.819 63.552,112.719 63.095 C 113.549 62.673,117.975 62.784,118.429 63.238 M139.096 63.238 C 139.424 63.567,139.712 90.796,139.413 93.296 C 139.258 94.593,138.973 94.729,136.263 94.797 C 133.852 94.859,133.127 94.662,132.713 93.833 C 132.487 93.381,132.422 64.648,132.645 63.851 C 132.936 62.813,138.173 62.315,139.096 63.238 M178.885 62.988 C 179.599 63.259,179.667 63.840,179.667 69.671 C 179.667 72.671,179.713 75.358,179.770 75.643 L 179.874 76.161 180.395 75.468 C 180.682 75.087,181.120 74.507,181.369 74.179 C 181.618 73.852,182.075 73.208,182.384 72.750 C 182.692 72.292,183.070 71.814,183.222 71.688 C 183.375 71.562,183.500 71.352,183.500 71.222 C 183.500 71.092,183.705 70.782,183.955 70.534 C 184.206 70.286,184.525 69.887,184.664 69.647 C 185.161 68.790,186.003 67.575,186.415 67.122 C 186.645 66.868,186.833 66.559,186.833 66.434 C 186.833 66.310,186.956 66.106,187.106 65.981 C 187.256 65.857,187.568 65.454,187.799 65.086 C 188.030 64.718,188.356 64.267,188.523 64.083 C 188.691 63.900,188.986 63.563,189.178 63.333 C 189.668 62.750,194.024 62.601,194.997 63.134 C 195.813 63.582,196.062 65.500,195.305 65.500 C 195.219 65.500,195.047 65.745,194.922 66.045 C 194.797 66.345,194.464 66.851,194.183 67.170 C 193.902 67.489,193.671 67.830,193.669 67.927 C 193.668 68.025,193.442 68.320,193.167 68.583 C 192.892 68.847,192.667 69.155,192.667 69.269 C 192.667 69.383,192.482 69.621,192.257 69.798 C 192.032 69.975,191.757 70.318,191.647 70.560 C 191.537 70.802,191.397 71.000,191.336 71.000 C 191.275 71.000,190.931 71.411,190.571 71.913 C 190.211 72.415,189.862 72.828,189.796 72.830 C 189.730 72.832,189.551 73.077,189.398 73.375 C 189.246 73.673,189.019 73.977,188.894 74.050 C 188.769 74.123,188.544 74.423,188.394 74.717 C 188.244 75.010,187.888 75.527,187.602 75.866 C 186.284 77.431,186.081 77.867,186.579 78.059 C 186.715 78.111,186.985 78.494,187.181 78.910 C 187.377 79.326,187.597 79.667,187.670 79.667 C 187.744 79.667,187.960 79.985,188.152 80.375 C 188.343 80.765,188.687 81.260,188.917 81.476 C 189.146 81.692,189.333 81.959,189.333 82.071 C 189.333 82.182,189.596 82.580,189.917 82.955 C 190.237 83.330,190.500 83.791,190.500 83.981 C 190.500 84.171,190.682 84.445,190.904 84.590 C 191.127 84.736,191.380 85.057,191.467 85.303 C 191.554 85.549,191.858 86.013,192.143 86.333 C 192.428 86.654,192.663 87.034,192.664 87.177 C 192.665 87.320,192.892 87.653,193.167 87.917 C 193.442 88.180,193.667 88.475,193.668 88.573 C 193.669 88.670,193.932 89.079,194.252 89.482 C 194.572 89.884,194.833 90.351,194.833 90.520 C 194.833 90.688,195.009 90.941,195.224 91.081 C 196.385 91.842,196.371 94.335,195.204 94.659 C 194.398 94.883,190.931 94.882,190.124 94.658 C 189.482 94.479,188.449 93.331,187.790 92.064 C 187.629 91.754,187.432 91.500,187.352 91.500 C 187.272 91.500,187.110 91.265,186.991 90.978 C 186.872 90.691,186.599 90.247,186.385 89.993 C 186.171 89.738,185.888 89.273,185.757 88.960 C 185.626 88.647,185.397 88.288,185.247 88.164 C 185.097 88.039,184.794 87.582,184.574 87.147 C 184.353 86.713,184.090 86.306,183.989 86.243 C 183.888 86.181,183.660 85.819,183.483 85.440 C 183.305 85.060,182.823 84.300,182.412 83.750 C 182.000 83.200,181.514 82.439,181.332 82.060 C 181.149 81.680,180.899 81.330,180.775 81.283 C 180.651 81.235,180.399 80.891,180.214 80.518 L 179.879 79.841 179.774 80.712 C 179.717 81.191,179.669 84.229,179.668 87.464 C 179.666 95.224,179.820 94.922,175.931 94.805 C 172.339 94.697,172.647 96.265,172.704 78.408 C 172.759 60.970,172.324 62.863,176.281 62.844 C 177.489 62.838,178.661 62.903,178.885 62.988 M217.314 63.232 C 217.652 63.538,217.664 63.710,217.706 69.065 L 217.750 74.583 223.375 74.627 L 229.000 74.671 229.009 69.544 C 229.022 62.463,228.835 62.800,232.723 62.871 L 235.196 62.917 235.598 63.384 L 236.000 63.852 236.000 78.722 C 236.000 95.225,236.077 94.109,234.900 94.601 C 234.208 94.890,231.000 94.900,230.169 94.616 C 229.110 94.253,229.093 94.144,229.000 87.083 L 228.917 80.750 223.520 80.706 C 219.676 80.675,218.057 80.717,217.895 80.851 C 217.709 81.006,217.667 82.212,217.667 87.346 C 217.667 94.436,217.676 94.374,216.573 94.652 C 215.614 94.893,212.694 94.883,211.983 94.636 C 210.590 94.151,210.642 94.814,210.700 78.409 C 210.755 62.675,210.706 63.420,211.718 62.996 C 212.450 62.689,216.923 62.878,217.314 63.232 M260.933 63.184 C 261.211 63.492,261.250 63.806,261.250 65.750 C 261.250 68.932,261.750 68.667,255.747 68.667 C 253.070 68.667,250.532 68.714,250.107 68.773 L 249.333 68.879 249.333 71.773 L 249.333 74.667 253.904 74.667 L 258.474 74.667 258.964 75.079 C 259.635 75.643,259.903 76.690,259.788 78.298 C 259.619 80.671,259.880 80.563,254.083 80.667 L 249.417 80.750 249.417 84.750 L 249.417 88.750 255.131 88.833 C 261.307 88.923,261.052 88.882,261.262 89.833 C 261.312 90.063,261.424 90.380,261.510 90.539 C 261.719 90.926,261.711 92.953,261.500 93.083 C 261.408 93.140,261.333 93.373,261.333 93.601 C 261.333 93.829,261.149 94.199,260.924 94.424 L 260.515 94.833 252.249 94.833 C 243.210 94.833,243.392 94.852,242.680 93.852 C 242.335 93.368,242.333 93.282,242.333 78.798 L 242.333 64.231 242.757 63.657 C 243.369 62.827,243.017 62.858,252.183 62.845 C 260.551 62.833,260.617 62.836,260.933 63.184 M281.217 63.076 C 281.749 63.203,282.274 63.378,282.384 63.464 C 282.494 63.550,283.015 63.754,283.542 63.917 C 284.069 64.079,284.500 64.261,284.500 64.320 C 284.500 64.380,284.744 64.568,285.042 64.738 C 285.608 65.063,287.167 66.605,287.167 66.841 C 287.167 66.916,287.391 67.339,287.664 67.781 C 288.627 69.333,288.743 74.680,287.843 76.000 C 287.686 76.229,287.463 76.655,287.348 76.945 C 287.121 77.514,284.998 79.667,284.664 79.667 C 284.553 79.667,284.216 79.935,283.916 80.262 L 283.371 80.858 284.310 81.823 C 285.722 83.273,285.937 83.553,286.164 84.241 C 286.278 84.588,286.506 85.006,286.669 85.169 C 286.833 85.333,287.086 85.877,287.232 86.378 C 287.377 86.880,287.606 87.381,287.741 87.492 C 287.875 87.603,288.107 88.116,288.257 88.631 C 288.406 89.146,288.669 89.745,288.839 89.962 C 289.010 90.179,289.271 90.775,289.420 91.285 C 289.568 91.796,289.802 92.385,289.940 92.595 C 290.859 93.999,289.845 94.733,286.886 94.805 C 283.822 94.879,282.987 94.492,282.461 92.750 C 282.351 92.383,282.014 91.609,281.713 91.030 C 281.413 90.450,281.167 89.872,281.167 89.745 C 281.167 89.619,280.981 89.241,280.754 88.907 C 280.528 88.573,280.293 88.026,280.234 87.692 C 280.174 87.357,279.961 86.858,279.761 86.583 C 279.560 86.308,279.305 85.856,279.193 85.577 C 278.534 83.941,276.863 82.922,274.833 82.919 L 273.250 82.917 273.167 88.433 C 273.064 95.211,273.274 94.830,269.645 94.832 C 265.835 94.834,266.167 96.342,266.167 79.003 C 266.167 63.430,266.137 63.941,267.086 63.195 C 267.667 62.737,279.388 62.639,281.217 63.076 M313.099 63.184 C 313.378 63.492,313.417 63.806,313.417 65.750 C 313.417 68.932,313.917 68.667,307.914 68.667 C 305.237 68.667,302.699 68.714,302.273 68.773 L 301.500 68.879 301.500 71.773 L 301.500 74.667 306.071 74.667 L 310.641 74.667 311.151 75.096 C 311.825 75.663,312.060 76.587,311.952 78.250 C 311.795 80.676,312.062 80.563,306.250 80.667 L 301.583 80.750 301.583 84.750 L 301.583 88.750 307.333 88.841 C 310.496 88.891,313.097 88.947,313.113 88.966 C 314.078 90.071,313.965 93.872,312.947 94.585 C 312.417 94.956,296.389 94.957,295.672 94.586 C 294.413 93.935,294.500 95.114,294.500 78.798 L 294.500 64.231 294.923 63.657 C 295.536 62.827,295.183 62.858,304.349 62.845 C 312.718 62.833,312.784 62.836,313.099 63.184 M273.708 68.778 L 273.167 68.854 273.167 72.751 C 273.167 75.688,273.218 76.679,273.375 76.776 C 273.989 77.158,277.738 77.040,278.352 76.620 C 278.684 76.393,279.222 76.119,279.550 76.011 C 279.933 75.884,280.265 75.611,280.483 75.241 C 280.670 74.925,280.892 74.667,280.978 74.667 C 281.207 74.667,281.380 72.845,281.250 71.806 C 281.143 70.949,280.327 69.667,279.888 69.667 C 279.809 69.667,279.445 69.463,279.080 69.214 C 278.411 68.758,275.517 68.523,273.708 68.778 " stroke="none" fill="#fbfcfc" fill-rule="evenodd"></path><path id="path3" d="M20.079 20.405 C 18.778 20.623,18.796 20.614,17.472 21.619 C 16.016 22.725,15.197 24.047,14.990 25.629 C 14.649 28.225,14.863 132.476,15.210 133.167 C 15.867 134.475,16.542 135.230,18.171 136.480 C 19.361 137.392,6.730 137.333,199.500 137.333 C 392.321 137.333,379.659 137.393,380.824 136.479 C 381.101 136.261,381.559 135.905,381.841 135.687 C 382.867 134.895,383.698 133.541,383.941 132.266 C 384.248 130.653,384.279 27.344,383.973 25.449 C 383.744 24.032,382.736 22.435,381.605 21.694 C 381.232 21.450,380.794 21.121,380.634 20.963 C 380.328 20.661,380.252 20.639,378.481 20.348 C 376.835 20.077,21.699 20.133,20.079 20.405 M379.642 21.016 C 379.930 21.117,380.167 21.265,380.167 21.346 C 380.167 21.427,380.453 21.639,380.803 21.818 C 381.396 22.121,382.027 22.753,382.977 23.998 C 383.674 24.912,383.678 25.239,383.630 79.841 C 383.584 132.290,383.581 132.601,383.250 133.074 C 383.067 133.336,382.777 133.782,382.606 134.065 C 382.236 134.679,381.612 135.293,380.893 135.750 C 380.605 135.933,380.158 136.233,379.900 136.417 C 379.294 136.848,20.240 136.957,19.220 136.526 C 18.929 136.403,18.650 136.197,18.601 136.068 C 18.551 135.939,18.408 135.833,18.283 135.833 C 17.975 135.833,16.643 134.588,16.333 134.010 C 16.196 133.753,15.933 133.330,15.750 133.070 C 15.419 132.601,15.416 132.292,15.370 79.841 C 15.322 25.241,15.326 24.913,16.023 23.996 C 16.920 22.815,17.704 22.025,18.171 21.832 C 18.444 21.719,18.667 21.557,18.667 21.472 C 18.667 20.821,11.307 20.847,199.433 20.840 C 329.482 20.835,379.262 20.884,379.642 21.016 M29.333 25.996 C 28.372 26.094,27.081 26.596,25.833 27.357 C 25.696 27.441,25.362 27.639,25.092 27.796 C 24.508 28.137,22.667 29.927,22.667 30.154 C 22.667 30.241,22.447 30.553,22.179 30.847 C 21.910 31.141,21.644 31.577,21.586 31.816 C 21.528 32.055,21.279 32.625,21.032 33.083 L 20.583 33.917 20.583 78.250 L 20.583 122.583 21.125 123.604 C 21.423 124.165,21.667 124.728,21.667 124.854 C 21.667 124.980,21.929 125.378,22.250 125.739 C 22.571 126.099,22.833 126.467,22.833 126.555 C 22.833 126.738,24.639 128.500,24.826 128.500 C 24.893 128.500,25.166 128.689,25.432 128.921 C 25.699 129.153,26.104 129.387,26.333 129.442 C 26.563 129.497,27.162 129.776,27.667 130.063 L 28.583 130.583 197.583 130.634 C 374.765 130.688,370.322 130.702,371.248 130.074 C 371.566 129.858,372.109 129.604,372.455 129.510 C 372.801 129.416,373.301 129.150,373.568 128.919 C 373.834 128.689,374.106 128.500,374.172 128.500 C 374.238 128.500,374.732 128.064,375.271 127.530 C 376.365 126.447,376.654 126.016,377.860 123.667 L 378.417 122.583 378.417 78.250 L 378.417 33.917 377.976 33.083 C 377.733 32.625,377.412 31.988,377.262 31.667 C 376.655 30.370,374.971 28.430,373.901 27.796 C 373.635 27.639,373.304 27.442,373.167 27.358 C 373.029 27.275,372.354 26.917,371.667 26.562 L 370.417 25.917 200.417 25.901 C 106.917 25.892,29.929 25.935,29.333 25.996 M370.419 26.726 C 370.878 26.940,371.553 27.211,371.919 27.328 C 372.284 27.445,372.733 27.673,372.917 27.834 C 373.100 27.996,373.475 28.244,373.750 28.386 C 374.371 28.706,375.474 29.854,376.061 30.792 C 376.305 31.181,376.575 31.500,376.662 31.500 C 376.749 31.500,376.904 31.819,377.008 32.208 C 377.111 32.598,377.395 33.329,377.639 33.833 L 378.083 34.750 378.083 78.185 L 378.083 121.621 377.641 122.602 C 377.398 123.142,377.105 123.902,376.989 124.292 C 376.874 124.681,376.718 125.000,376.642 125.000 C 376.566 125.000,376.305 125.319,376.061 125.708 C 375.489 126.622,374.571 127.585,373.833 128.043 C 373.512 128.243,373.103 128.541,372.924 128.706 C 372.744 128.871,372.295 129.087,371.925 129.187 C 371.555 129.287,370.951 129.529,370.584 129.726 L 369.917 130.083 199.500 130.083 C 34.720 130.083,29.065 130.073,28.525 129.779 C 28.217 129.611,27.638 129.375,27.238 129.255 C 25.922 128.859,23.582 126.952,22.979 125.784 C 22.799 125.435,22.542 125.108,22.409 125.057 C 22.275 125.006,22.044 124.541,21.895 124.024 C 21.746 123.506,21.465 122.783,21.271 122.417 L 20.917 121.750 20.917 78.250 L 20.917 34.750 21.291 33.990 C 21.497 33.572,21.779 32.848,21.918 32.382 C 22.056 31.916,22.278 31.493,22.410 31.442 C 22.543 31.391,22.797 31.064,22.975 30.715 C 23.303 30.074,25.009 28.333,25.311 28.333 C 25.401 28.333,25.686 28.157,25.946 27.941 C 26.205 27.725,26.717 27.455,27.083 27.341 C 27.450 27.226,28.121 26.953,28.574 26.733 L 29.399 26.333 199.491 26.335 L 369.583 26.337 370.419 26.726 M29.562 30.234 C 28.914 30.362,28.346 30.600,28.008 30.885 C 27.714 31.131,27.405 31.333,27.320 31.333 C 27.142 31.333,25.833 32.648,25.833 32.828 C 25.833 32.894,25.654 33.156,25.436 33.411 C 24.650 34.325,24.667 33.371,24.667 78.250 C 24.667 122.778,24.657 122.152,25.394 123.069 C 25.590 123.312,26.012 123.841,26.333 124.245 C 26.654 124.648,27.150 125.094,27.435 125.236 C 27.721 125.378,28.043 125.601,28.152 125.732 C 28.746 126.448,20.996 126.417,199.500 126.417 C 380.165 126.417,370.198 126.461,370.929 125.653 C 371.088 125.477,371.303 125.333,371.407 125.333 C 371.992 125.333,373.898 122.789,374.154 121.667 C 374.393 120.620,374.392 35.873,374.153 34.836 C 373.894 33.712,372.196 31.349,371.638 31.336 C 371.576 31.335,371.287 31.133,370.995 30.887 C 370.645 30.592,370.091 30.369,369.358 30.227 C 367.779 29.921,31.111 29.928,29.562 30.234 M369.000 30.678 C 369.644 30.783,370.223 30.985,370.427 31.177 C 370.617 31.355,370.854 31.500,370.955 31.500 C 371.199 31.500,372.323 32.599,372.831 33.333 C 373.052 33.654,373.285 33.954,373.348 34.000 C 373.809 34.335,373.831 36.405,373.832 78.218 C 373.833 120.559,373.811 122.500,373.318 122.500 C 373.239 122.500,373.053 122.736,372.905 123.023 C 372.628 123.558,371.208 125.000,370.958 125.000 C 370.882 125.000,370.667 125.142,370.480 125.316 C 370.293 125.490,369.940 125.693,369.695 125.768 C 368.959 125.990,31.663 126.048,30.091 125.826 C 29.160 125.694,28.682 125.543,28.488 125.319 C 28.335 125.144,28.117 125.000,28.001 125.000 C 27.739 125.000,26.167 123.393,26.167 123.126 C 26.167 123.018,25.960 122.765,25.708 122.564 L 25.250 122.198 25.250 78.251 L 25.250 34.304 25.667 33.941 C 25.896 33.741,26.193 33.367,26.326 33.110 C 26.625 32.534,27.748 31.500,28.074 31.500 C 28.206 31.500,28.415 31.356,28.539 31.179 C 28.689 30.966,29.095 30.806,29.757 30.699 C 31.206 30.467,367.568 30.446,369.000 30.678 " stroke="none" fill="#9c9c9c" fill-rule="evenodd"></path><path id="path4" d="M19.208 21.082 C 18.910 21.211,18.667 21.387,18.667 21.472 C 18.667 21.557,18.444 21.719,18.171 21.832 C 17.704 22.025,16.920 22.815,16.023 23.996 C 15.326 24.913,15.322 25.241,15.370 79.841 C 15.416 132.292,15.419 132.601,15.750 133.070 C 15.933 133.330,16.196 133.753,16.333 134.010 C 16.643 134.588,17.975 135.833,18.283 135.833 C 18.408 135.833,18.551 135.939,18.601 136.068 C 18.650 136.197,18.929 136.403,19.220 136.526 C 20.240 136.957,379.294 136.848,379.900 136.417 C 380.158 136.233,380.605 135.933,380.893 135.750 C 381.612 135.293,382.236 134.679,382.606 134.065 C 382.777 133.782,383.067 133.336,383.250 133.074 C 383.581 132.601,383.584 132.290,383.630 79.841 C 383.678 25.239,383.674 24.912,382.977 23.998 C 382.027 22.753,381.396 22.121,380.803 21.818 C 380.453 21.639,380.167 21.427,380.167 21.346 C 380.167 21.265,379.930 21.117,379.642 21.016 C 378.759 20.709,19.917 20.774,19.208 21.082 M379.722 21.531 C 379.981 21.778,380.412 22.027,380.680 22.086 C 380.948 22.145,381.167 22.302,381.167 22.436 C 381.167 22.569,381.429 22.833,381.750 23.022 C 382.122 23.241,382.333 23.493,382.333 23.716 C 382.333 23.908,382.540 24.280,382.792 24.543 L 383.250 25.022 383.292 78.671 L 383.335 132.320 382.834 132.890 C 382.559 133.204,382.333 133.589,382.333 133.745 C 382.333 134.099,380.916 135.500,380.557 135.500 C 380.412 135.500,380.038 135.725,379.725 136.000 L 379.155 136.500 199.517 136.500 L 19.879 136.500 19.250 136.000 C 18.904 135.725,18.486 135.500,18.322 135.500 C 18.157 135.500,17.862 135.275,17.667 135.000 C 17.471 134.725,17.209 134.500,17.085 134.500 C 16.961 134.500,16.768 134.223,16.656 133.884 C 16.544 133.546,16.311 133.116,16.137 132.929 C 15.963 132.743,15.784 132.438,15.739 132.253 C 15.695 132.068,15.679 107.875,15.704 78.490 L 15.750 25.064 16.208 24.519 C 16.460 24.220,16.667 23.832,16.667 23.658 C 16.667 23.478,16.873 23.235,17.145 23.094 C 17.409 22.958,17.662 22.702,17.709 22.524 C 17.759 22.333,17.999 22.157,18.300 22.091 C 18.579 22.029,18.998 21.802,19.232 21.585 C 19.466 21.368,19.828 21.158,20.037 21.118 C 20.246 21.078,101.154 21.054,199.833 21.064 L 379.250 21.083 379.722 21.531 M27.837 25.837 C 27.519 25.912,27.132 26.129,26.977 26.320 C 26.823 26.511,26.616 26.667,26.518 26.667 C 26.077 26.667,25.003 27.227,24.915 27.504 C 24.862 27.673,24.588 27.861,24.305 27.923 C 23.954 28.000,23.737 28.180,23.620 28.490 C 23.525 28.739,23.292 29.012,23.100 29.097 C 22.908 29.181,22.651 29.461,22.528 29.719 C 22.405 29.977,22.196 30.230,22.063 30.281 C 21.740 30.405,21.333 31.215,21.333 31.736 C 21.333 31.979,21.199 32.227,21.013 32.326 C 20.219 32.751,20.250 30.892,20.250 78.333 C 20.250 126.693,20.205 124.167,21.075 124.167 C 21.252 124.167,21.333 124.327,21.333 124.675 C 21.333 125.340,21.743 126.116,22.165 126.249 C 22.349 126.308,22.500 126.489,22.500 126.652 C 22.500 126.957,22.989 127.500,23.264 127.500 C 23.349 127.500,23.516 127.720,23.635 127.989 C 23.778 128.311,24.016 128.514,24.335 128.584 C 24.601 128.642,24.861 128.823,24.912 128.986 C 25.022 129.332,25.678 129.667,26.244 129.667 C 26.475 129.667,26.767 129.843,26.949 130.093 C 27.134 130.347,27.526 130.580,27.921 130.672 C 28.936 130.907,370.151 130.884,371.085 130.649 C 371.536 130.535,371.919 130.311,372.080 130.065 C 372.241 129.819,372.502 129.667,372.762 129.667 C 373.298 129.667,374.167 129.223,374.167 128.949 C 374.167 128.834,374.391 128.655,374.665 128.552 C 374.944 128.446,375.236 128.174,375.328 127.932 C 375.418 127.694,375.594 127.500,375.720 127.500 C 376.015 127.500,376.500 126.964,376.500 126.639 C 376.500 126.500,376.683 126.303,376.907 126.202 C 377.295 126.024,377.663 125.179,377.666 124.458 C 377.666 124.298,377.783 124.167,377.925 124.167 C 378.695 124.167,378.667 125.918,378.667 78.280 C 378.667 31.988,378.677 32.696,377.997 32.332 C 377.820 32.237,377.648 31.885,377.579 31.477 C 377.508 31.056,377.294 30.627,377.036 30.388 C 376.802 30.171,376.527 29.826,376.425 29.622 C 376.324 29.417,376.036 29.152,375.787 29.033 C 375.531 28.910,375.333 28.678,375.333 28.502 C 375.333 28.295,375.135 28.117,374.751 27.978 C 374.430 27.862,374.127 27.639,374.078 27.482 C 373.989 27.204,372.897 26.667,372.419 26.667 C 372.287 26.667,372.103 26.526,372.011 26.354 C 371.919 26.182,371.512 25.959,371.098 25.854 C 370.209 25.631,28.789 25.613,27.837 25.837 M371.667 26.562 C 372.354 26.917,373.029 27.275,373.167 27.358 C 373.304 27.442,373.635 27.639,373.901 27.796 C 374.971 28.430,376.655 30.370,377.262 31.667 C 377.412 31.988,377.733 32.625,377.976 33.083 L 378.417 33.917 378.417 78.250 L 378.417 122.583 377.860 123.667 C 376.654 126.016,376.365 126.447,375.271 127.530 C 374.732 128.064,374.238 128.500,374.172 128.500 C 374.106 128.500,373.834 128.689,373.568 128.919 C 373.301 129.150,372.801 129.416,372.455 129.510 C 372.109 129.604,371.566 129.858,371.248 130.074 C 370.322 130.702,374.765 130.688,197.583 130.634 L 28.583 130.583 27.667 130.063 C 27.162 129.776,26.563 129.497,26.333 129.442 C 26.104 129.387,25.699 129.153,25.432 128.921 C 25.166 128.689,24.893 128.500,24.826 128.500 C 24.639 128.500,22.833 126.738,22.833 126.555 C 22.833 126.467,22.571 126.099,22.250 125.739 C 21.929 125.378,21.667 124.980,21.667 124.854 C 21.667 124.728,21.423 124.165,21.125 123.604 L 20.583 122.583 20.583 78.250 L 20.583 33.917 21.032 33.083 C 21.279 32.625,21.528 32.055,21.586 31.816 C 21.644 31.577,21.910 31.141,22.179 30.847 C 22.447 30.553,22.667 30.241,22.667 30.154 C 22.667 29.927,24.508 28.137,25.092 27.796 C 25.362 27.639,25.696 27.441,25.833 27.357 C 27.081 26.596,28.372 26.094,29.333 25.996 C 29.929 25.935,106.917 25.892,200.417 25.901 L 370.417 25.917 371.667 26.562 M29.757 30.699 C 29.095 30.806,28.689 30.966,28.539 31.179 C 28.415 31.356,28.206 31.500,28.074 31.500 C 27.748 31.500,26.625 32.534,26.326 33.110 C 26.193 33.367,25.896 33.741,25.667 33.941 L 25.250 34.304 25.250 78.251 L 25.250 122.198 25.708 122.564 C 25.960 122.765,26.167 123.018,26.167 123.126 C 26.167 123.393,27.739 125.000,28.001 125.000 C 28.117 125.000,28.335 125.144,28.488 125.319 C 28.682 125.543,29.160 125.694,30.091 125.826 C 31.663 126.048,368.959 125.990,369.695 125.768 C 369.940 125.693,370.293 125.490,370.480 125.316 C 370.667 125.142,370.882 125.000,370.958 125.000 C 371.208 125.000,372.628 123.558,372.905 123.023 C 373.053 122.736,373.239 122.500,373.318 122.500 C 373.811 122.500,373.833 120.559,373.832 78.218 C 373.831 36.405,373.809 34.335,373.348 34.000 C 373.285 33.954,373.052 33.654,372.831 33.333 C 372.323 32.599,371.199 31.500,370.955 31.500 C 370.854 31.500,370.617 31.355,370.427 31.177 C 370.223 30.985,369.644 30.783,369.000 30.678 C 367.568 30.446,31.206 30.467,29.757 30.699 M369.917 31.333 C 370.263 31.608,370.704 31.834,370.898 31.834 C 371.116 31.835,371.361 32.031,371.543 32.350 C 371.704 32.634,371.977 32.902,372.150 32.947 C 372.325 32.993,372.504 33.229,372.554 33.478 C 372.603 33.725,372.836 34.134,373.072 34.388 L 373.500 34.851 373.500 78.253 L 373.500 121.655 373.000 122.167 C 372.725 122.448,372.500 122.845,372.500 123.050 C 372.500 123.275,372.352 123.486,372.125 123.585 C 371.919 123.676,371.677 123.916,371.588 124.120 C 371.498 124.323,371.221 124.535,370.971 124.590 C 370.722 124.644,370.241 124.909,369.902 125.178 L 369.287 125.667 199.549 125.667 C 73.227 125.667,29.721 125.618,29.458 125.477 C 29.263 125.373,28.958 125.152,28.780 124.986 C 28.601 124.819,28.240 124.636,27.977 124.578 C 27.715 124.521,27.500 124.363,27.500 124.229 C 27.500 124.095,27.275 123.857,27.001 123.701 C 26.681 123.518,26.502 123.283,26.501 123.043 C 26.500 122.838,26.256 122.437,25.958 122.152 L 25.417 121.634 25.417 78.253 L 25.417 34.871 25.886 34.402 C 26.144 34.144,26.395 33.731,26.445 33.485 C 26.496 33.230,26.707 32.959,26.937 32.854 C 27.159 32.753,27.412 32.482,27.499 32.252 C 27.604 31.977,27.788 31.832,28.038 31.829 C 28.246 31.826,28.711 31.601,29.071 31.329 L 29.726 30.833 199.507 30.833 L 369.287 30.833 369.917 31.333 M95.224 61.830 C 94.843 61.911,94.227 62.132,93.856 62.322 C 93.484 62.512,93.054 62.667,92.901 62.667 C 92.416 62.667,91.354 63.040,91.046 63.318 C 90.883 63.465,90.548 63.675,90.301 63.785 C 90.053 63.895,89.557 64.251,89.197 64.576 C 88.837 64.901,88.458 65.167,88.355 65.167 C 88.251 65.167,88.167 65.227,88.167 65.300 C 88.167 65.373,87.885 65.739,87.542 66.114 C 86.992 66.714,86.113 67.876,85.813 68.402 C 85.339 69.233,84.495 71.142,84.497 71.380 C 84.499 71.544,84.380 71.956,84.233 72.297 C 83.605 73.753,83.512 74.656,83.508 79.333 C 83.504 84.013,83.580 84.749,84.219 86.167 C 84.363 86.487,84.525 87.023,84.578 87.356 C 84.631 87.689,84.896 88.289,85.168 88.689 C 85.439 89.089,85.663 89.529,85.665 89.667 C 85.671 89.963,86.427 90.900,87.583 92.044 C 88.862 93.310,89.208 93.603,89.750 93.877 C 90.025 94.016,90.547 94.288,90.910 94.482 C 91.273 94.675,91.737 94.833,91.940 94.833 C 92.143 94.833,92.424 94.947,92.563 95.087 C 93.213 95.737,100.565 96.157,101.425 95.593 C 101.643 95.450,102.052 95.333,102.333 95.333 C 102.615 95.333,103.011 95.229,103.214 95.101 C 103.417 94.974,103.932 94.820,104.357 94.760 C 106.226 94.497,106.998 93.325,106.998 90.750 C 106.998 87.872,106.113 87.040,104.495 88.397 C 104.263 88.591,103.513 88.895,102.828 89.072 C 102.144 89.250,101.487 89.491,101.370 89.608 C 100.863 90.112,96.800 90.139,96.210 89.641 C 96.049 89.505,95.448 89.212,94.875 88.991 C 94.302 88.770,93.833 88.533,93.833 88.465 C 93.833 88.397,93.571 88.103,93.250 87.811 C 92.929 87.519,92.667 87.197,92.667 87.097 C 92.667 86.996,92.495 86.727,92.285 86.498 C 91.846 86.020,91.572 85.366,91.414 84.417 C 91.353 84.050,91.141 83.300,90.943 82.750 C 90.383 81.194,90.435 76.860,91.039 74.750 C 91.275 73.925,91.517 73.014,91.577 72.725 C 91.637 72.437,91.904 71.912,92.172 71.559 C 92.439 71.206,92.659 70.838,92.662 70.742 C 92.665 70.646,92.967 70.255,93.333 69.873 C 93.700 69.492,94.000 69.102,94.000 69.006 C 94.000 68.911,94.098 68.833,94.219 68.833 C 94.528 68.833,95.893 68.160,96.036 67.936 C 96.114 67.814,96.912 67.752,98.369 67.756 L 100.583 67.763 101.833 68.382 C 102.521 68.723,103.158 69.095,103.250 69.209 C 103.536 69.565,105.229 70.622,105.681 70.726 C 106.629 70.946,106.750 70.623,106.750 67.878 L 106.750 65.396 105.917 64.532 C 105.458 64.057,105.001 63.668,104.901 63.668 C 104.800 63.667,104.593 63.528,104.440 63.359 C 104.287 63.190,103.844 62.959,103.456 62.845 C 103.068 62.731,102.337 62.446,101.833 62.211 C 100.826 61.743,96.737 61.507,95.224 61.830 M156.057 61.830 C 155.676 61.911,155.076 62.120,154.724 62.294 C 154.372 62.468,153.651 62.710,153.123 62.832 C 152.595 62.954,152.076 63.159,151.969 63.287 C 151.863 63.415,151.539 63.618,151.249 63.740 C 150.959 63.861,150.437 64.213,150.091 64.522 C 148.758 65.708,147.833 66.631,147.833 66.774 C 147.833 66.856,147.539 67.279,147.179 67.714 C 146.820 68.150,146.473 68.742,146.410 69.031 C 146.347 69.319,146.162 69.698,145.999 69.872 C 145.837 70.047,145.580 70.653,145.427 71.220 C 145.275 71.786,145.085 72.400,145.005 72.583 C 144.517 73.710,144.451 74.313,144.380 78.333 C 144.301 82.763,144.444 84.769,144.904 85.690 C 145.053 85.990,145.292 86.686,145.435 87.236 C 145.577 87.787,145.829 88.427,145.995 88.660 C 146.160 88.893,146.408 89.354,146.546 89.684 C 146.809 90.316,147.011 90.568,148.335 91.917 C 149.676 93.283,150.311 93.833,150.546 93.833 C 150.669 93.833,151.022 94.020,151.331 94.248 C 151.640 94.476,152.161 94.712,152.488 94.771 C 152.815 94.831,153.346 95.012,153.667 95.174 C 155.036 95.865,161.483 96.176,162.260 95.589 C 162.438 95.454,162.850 95.342,163.175 95.339 C 163.500 95.336,163.852 95.248,163.957 95.143 C 164.061 95.039,164.543 94.891,165.028 94.814 C 165.513 94.737,166.099 94.520,166.330 94.331 C 166.561 94.142,166.872 93.947,167.021 93.897 C 167.824 93.626,168.163 88.614,167.417 88.058 C 166.975 87.729,166.123 87.870,165.352 88.400 C 165.021 88.628,164.225 88.944,163.583 89.103 C 162.942 89.262,162.329 89.510,162.222 89.654 C 161.938 90.036,157.759 90.038,157.159 89.657 C 156.934 89.514,156.386 89.261,155.941 89.095 C 155.015 88.749,153.784 87.685,153.491 86.979 C 153.382 86.716,153.243 86.500,153.182 86.500 C 152.944 86.500,152.526 85.524,152.262 84.353 C 152.110 83.676,151.877 82.861,151.743 82.541 C 151.562 82.108,151.500 81.225,151.500 79.080 C 151.500 74.714,152.430 71.652,154.333 69.750 C 154.608 69.475,154.834 69.175,154.833 69.082 C 154.833 68.990,155.147 68.817,155.530 68.697 C 155.914 68.577,156.458 68.315,156.739 68.115 C 158.136 67.118,162.577 67.828,164.249 69.316 C 166.871 71.648,167.667 71.303,167.667 67.834 L 167.667 65.501 167.083 64.882 C 166.762 64.542,166.500 64.217,166.500 64.160 C 166.500 64.103,166.296 63.950,166.047 63.820 C 165.797 63.690,165.478 63.470,165.337 63.331 C 165.195 63.193,164.743 62.980,164.331 62.859 C 163.920 62.737,163.171 62.446,162.667 62.211 C 161.660 61.743,157.570 61.507,156.057 61.830 M101.016 62.548 C 101.529 62.797,102.151 63.000,102.398 63.000 C 103.140 63.000,105.076 64.157,105.854 65.066 C 106.677 66.026,106.775 70.333,105.975 70.333 C 105.756 70.333,103.573 68.919,103.427 68.683 C 103.365 68.582,103.199 68.500,103.059 68.500 C 102.919 68.500,102.465 68.256,102.051 67.958 L 101.297 67.417 98.754 67.360 C 96.019 67.300,96.215 67.257,94.392 68.305 C 93.218 68.980,91.783 70.823,91.231 72.365 C 90.991 73.035,90.729 73.665,90.650 73.764 C 90.116 74.431,90.045 81.876,90.556 83.583 C 91.344 86.212,91.634 86.736,93.177 88.308 C 94.725 89.885,95.966 90.323,98.917 90.330 C 100.484 90.334,102.755 89.935,103.093 89.597 C 103.224 89.467,103.612 89.271,103.957 89.162 C 104.301 89.053,104.871 88.770,105.222 88.533 C 105.710 88.204,105.926 88.143,106.134 88.275 C 106.950 88.790,106.746 93.500,105.908 93.500 C 105.810 93.500,105.583 93.637,105.404 93.803 C 104.944 94.232,104.122 94.486,102.802 94.609 C 101.932 94.690,101.563 94.807,101.240 95.107 C 100.625 95.677,95.157 95.719,94.445 95.159 C 94.194 94.962,93.493 94.728,92.782 94.604 C 91.942 94.458,91.368 94.250,90.969 93.945 C 90.648 93.700,90.242 93.498,90.068 93.496 C 89.446 93.488,86.000 89.879,86.000 89.236 C 86.000 89.132,85.801 88.755,85.558 88.398 C 85.298 88.018,84.985 87.167,84.800 86.341 C 84.626 85.566,84.423 84.853,84.349 84.757 C 83.621 83.815,83.620 74.853,84.349 73.910 C 84.422 73.815,84.603 73.153,84.751 72.439 C 85.031 71.083,85.301 70.333,85.510 70.333 C 85.578 70.333,85.724 69.958,85.834 69.499 C 85.952 69.007,86.188 68.543,86.411 68.368 C 86.618 68.204,86.921 67.813,87.085 67.498 C 87.506 66.683,89.563 64.750,90.657 64.142 C 92.316 63.218,92.469 63.154,93.365 63.005 C 93.852 62.925,94.662 62.666,95.167 62.430 C 96.511 61.802,99.606 61.865,101.016 62.548 M161.849 62.543 C 162.362 62.795,163.000 63.001,163.266 63.003 C 163.532 63.004,164.050 63.190,164.417 63.416 C 164.783 63.641,165.284 63.924,165.530 64.043 C 165.776 64.162,166.282 64.607,166.655 65.031 L 167.333 65.801 167.333 67.745 C 167.333 69.593,167.188 70.333,166.825 70.333 C 166.647 70.333,164.889 69.215,164.525 68.870 C 164.401 68.753,164.027 68.543,163.694 68.404 C 163.361 68.265,162.912 67.986,162.697 67.784 C 162.289 67.400,158.493 67.141,157.101 67.402 C 156.605 67.495,154.540 68.703,154.324 69.027 C 154.206 69.204,153.170 70.438,152.811 70.830 C 152.661 70.994,152.334 71.680,152.083 72.356 C 151.833 73.031,151.527 73.846,151.405 74.167 C 151.241 74.594,151.180 75.822,151.175 78.750 C 151.168 82.803,151.243 83.472,151.844 84.790 C 152.022 85.178,152.167 85.647,152.167 85.831 C 152.167 86.015,152.429 86.444,152.750 86.784 C 153.071 87.124,153.333 87.490,153.333 87.597 C 153.333 88.273,156.003 89.978,157.374 90.176 C 159.695 90.511,163.329 90.190,163.992 89.591 C 164.143 89.454,164.579 89.232,164.960 89.097 C 165.342 88.963,165.873 88.690,166.141 88.492 C 167.135 87.758,167.519 88.421,167.488 90.815 C 167.466 92.463,167.288 93.221,166.876 93.427 C 166.671 93.529,166.371 93.727,166.209 93.866 C 165.775 94.242,164.915 94.490,163.636 94.609 C 162.765 94.690,162.397 94.807,162.073 95.107 C 161.465 95.671,155.888 95.722,155.335 95.169 C 155.117 94.951,154.589 94.773,153.794 94.649 C 152.946 94.518,152.375 94.317,151.889 93.981 C 151.508 93.716,151.057 93.500,150.888 93.500 C 150.269 93.500,147.209 90.203,146.821 89.118 C 146.696 88.770,146.456 88.337,146.288 88.156 C 146.119 87.975,145.902 87.397,145.806 86.872 C 145.709 86.346,145.432 85.393,145.190 84.754 C 144.552 83.067,144.505 75.447,145.125 74.103 C 145.332 73.656,145.579 72.793,145.675 72.186 C 145.781 71.521,146.012 70.849,146.258 70.491 C 146.483 70.165,146.667 69.768,146.667 69.608 C 146.667 69.241,147.099 68.393,147.377 68.217 C 147.492 68.143,147.787 67.783,148.032 67.417 C 149.465 65.270,152.188 63.343,154.276 62.998 C 154.749 62.920,155.461 62.711,155.859 62.533 C 156.258 62.355,156.696 62.165,156.833 62.111 C 157.610 61.805,160.924 62.090,161.849 62.543 M112.719 63.095 C 111.819 63.552,111.833 63.295,111.833 78.711 L 111.833 93.038 112.207 93.702 C 112.858 94.862,112.642 94.833,120.884 94.833 C 130.349 94.833,129.738 95.065,129.639 91.520 C 129.561 88.691,130.075 88.935,123.953 88.833 L 118.917 88.750 118.833 76.155 C 118.753 64.001,118.739 63.548,118.429 63.238 C 117.975 62.784,113.549 62.673,112.719 63.095 M133.337 63.134 C 133.018 63.309,132.706 63.632,132.645 63.851 C 132.422 64.648,132.487 93.381,132.713 93.833 C 133.127 94.662,133.852 94.859,136.263 94.797 C 138.973 94.729,139.258 94.593,139.413 93.296 C 139.712 90.796,139.424 63.567,139.096 63.238 C 138.604 62.746,134.189 62.666,133.337 63.134 M173.750 62.991 C 172.681 63.429,172.755 62.334,172.704 78.408 C 172.647 96.265,172.339 94.697,175.931 94.805 C 179.820 94.922,179.666 95.224,179.668 87.464 C 179.669 84.229,179.717 81.191,179.774 80.712 L 179.879 79.841 180.214 80.518 C 180.399 80.891,180.651 81.235,180.775 81.283 C 180.899 81.330,181.149 81.680,181.332 82.060 C 181.514 82.439,182.000 83.200,182.412 83.750 C 182.823 84.300,183.305 85.060,183.483 85.440 C 183.660 85.819,183.888 86.181,183.989 86.243 C 184.090 86.306,184.353 86.713,184.574 87.147 C 184.794 87.582,185.097 88.039,185.247 88.164 C 185.397 88.288,185.626 88.647,185.757 88.960 C 185.888 89.273,186.171 89.738,186.385 89.993 C 186.599 90.247,186.872 90.691,186.991 90.978 C 187.110 91.265,187.272 91.500,187.352 91.500 C 187.432 91.500,187.629 91.754,187.790 92.064 C 188.449 93.331,189.482 94.479,190.124 94.658 C 190.931 94.882,194.398 94.883,195.204 94.659 C 196.371 94.335,196.385 91.842,195.224 91.081 C 195.009 90.941,194.833 90.688,194.833 90.520 C 194.833 90.351,194.572 89.884,194.252 89.482 C 193.932 89.079,193.669 88.670,193.668 88.573 C 193.667 88.475,193.442 88.180,193.167 87.917 C 192.892 87.653,192.665 87.320,192.664 87.177 C 192.663 87.034,192.428 86.654,192.143 86.333 C 191.858 86.013,191.554 85.549,191.467 85.303 C 191.380 85.057,191.127 84.736,190.904 84.590 C 190.682 84.445,190.500 84.171,190.500 83.981 C 190.500 83.791,190.237 83.330,189.917 82.955 C 189.596 82.580,189.333 82.182,189.333 82.071 C 189.333 81.959,189.146 81.692,188.917 81.476 C 188.687 81.260,188.343 80.765,188.152 80.375 C 187.960 79.985,187.744 79.667,187.670 79.667 C 187.597 79.667,187.377 79.326,187.181 78.910 C 186.985 78.494,186.715 78.111,186.579 78.059 C 186.081 77.867,186.284 77.431,187.602 75.866 C 187.888 75.527,188.244 75.010,188.394 74.717 C 188.544 74.423,188.769 74.123,188.894 74.050 C 189.019 73.977,189.246 73.673,189.398 73.375 C 189.551 73.077,189.730 72.832,189.796 72.830 C 189.862 72.828,190.211 72.415,190.571 71.913 C 190.931 71.411,191.275 71.000,191.336 71.000 C 191.397 71.000,191.537 70.802,191.647 70.560 C 191.757 70.318,192.032 69.975,192.257 69.798 C 192.482 69.621,192.667 69.383,192.667 69.269 C 192.667 69.155,192.892 68.847,193.167 68.583 C 193.442 68.320,193.668 68.025,193.669 67.927 C 193.671 67.830,193.902 67.489,194.183 67.170 C 194.464 66.851,194.797 66.345,194.922 66.045 C 195.047 65.745,195.219 65.500,195.305 65.500 C 196.062 65.500,195.813 63.582,194.997 63.134 C 194.024 62.601,189.668 62.750,189.178 63.333 C 188.986 63.563,188.691 63.900,188.523 64.083 C 188.356 64.267,188.030 64.718,187.799 65.086 C 187.568 65.454,187.256 65.857,187.106 65.981 C 186.956 66.106,186.833 66.310,186.833 66.434 C 186.833 66.559,186.645 66.868,186.415 67.122 C 186.003 67.575,185.161 68.790,184.664 69.647 C 184.525 69.887,184.206 70.286,183.955 70.534 C 183.705 70.782,183.500 71.092,183.500 71.222 C 183.500 71.352,183.375 71.562,183.222 71.688 C 183.070 71.814,182.692 72.292,182.384 72.750 C 182.075 73.208,181.618 73.852,181.369 74.179 C 181.120 74.507,180.682 75.087,180.395 75.468 L 179.874 76.161 179.770 75.643 C 179.713 75.358,179.667 72.671,179.667 69.671 C 179.667 63.840,179.599 63.259,178.885 62.988 C 178.388 62.799,174.213 62.801,173.750 62.991 M211.718 62.996 C 210.706 63.420,210.755 62.675,210.700 78.409 C 210.642 94.814,210.590 94.151,211.983 94.636 C 212.694 94.883,215.614 94.893,216.573 94.652 C 217.676 94.374,217.667 94.436,217.667 87.346 C 217.667 82.212,217.709 81.006,217.895 80.851 C 218.057 80.717,219.676 80.675,223.520 80.706 L 228.917 80.750 229.000 87.083 C 229.093 94.144,229.110 94.253,230.169 94.616 C 231.000 94.900,234.208 94.890,234.900 94.601 C 236.077 94.109,236.000 95.225,236.000 78.722 L 236.000 63.852 235.598 63.384 L 235.196 62.917 232.723 62.871 C 228.835 62.800,229.022 62.463,229.009 69.544 L 229.000 74.671 223.375 74.627 L 217.750 74.583 217.706 69.065 C 217.652 62.292,217.981 62.932,214.525 62.880 C 213.182 62.859,211.919 62.911,211.718 62.996 M243.465 62.970 C 243.308 63.032,242.990 63.342,242.757 63.657 L 242.333 64.231 242.333 78.798 C 242.333 93.282,242.335 93.368,242.680 93.852 C 243.392 94.852,243.210 94.833,252.249 94.833 L 260.515 94.833 260.924 94.424 C 261.149 94.199,261.333 93.829,261.333 93.601 C 261.333 93.373,261.408 93.140,261.500 93.083 C 261.711 92.953,261.719 90.926,261.510 90.539 C 261.424 90.380,261.312 90.063,261.262 89.833 C 261.052 88.882,261.307 88.923,255.131 88.833 L 249.417 88.750 249.417 84.750 L 249.417 80.750 254.083 80.667 C 259.880 80.563,259.619 80.671,259.788 78.298 C 259.903 76.690,259.635 75.643,258.964 75.079 L 258.474 74.667 253.904 74.667 L 249.333 74.667 249.333 71.773 L 249.333 68.879 250.107 68.773 C 250.532 68.714,253.070 68.667,255.747 68.667 C 261.750 68.667,261.250 68.932,261.250 65.750 C 261.250 62.488,262.321 62.831,252.183 62.845 C 247.545 62.851,243.622 62.908,243.465 62.970 M267.086 63.195 C 266.137 63.941,266.167 63.430,266.167 79.003 C 266.167 96.342,265.835 94.834,269.645 94.832 C 273.274 94.830,273.064 95.211,273.167 88.433 L 273.250 82.917 274.833 82.919 C 276.863 82.922,278.534 83.941,279.193 85.577 C 279.305 85.856,279.560 86.308,279.761 86.583 C 279.961 86.858,280.174 87.357,280.234 87.692 C 280.293 88.026,280.528 88.573,280.754 88.907 C 280.981 89.241,281.167 89.619,281.167 89.745 C 281.167 89.872,281.413 90.450,281.713 91.030 C 282.014 91.609,282.351 92.383,282.461 92.750 C 282.987 94.492,283.822 94.879,286.886 94.805 C 289.845 94.733,290.859 93.999,289.940 92.595 C 289.802 92.385,289.568 91.796,289.420 91.285 C 289.271 90.775,289.010 90.179,288.839 89.962 C 288.669 89.745,288.406 89.146,288.257 88.631 C 288.107 88.116,287.875 87.603,287.741 87.492 C 287.606 87.381,287.377 86.880,287.232 86.378 C 287.086 85.877,286.833 85.333,286.669 85.169 C 286.506 85.006,286.278 84.588,286.164 84.241 C 285.937 83.553,285.722 83.273,284.310 81.823 L 283.371 80.858 283.916 80.262 C 284.216 79.935,284.553 79.667,284.664 79.667 C 284.998 79.667,287.121 77.514,287.348 76.945 C 287.463 76.655,287.686 76.229,287.843 76.000 C 288.743 74.680,288.627 69.333,287.664 67.781 C 287.391 67.339,287.167 66.916,287.167 66.841 C 287.167 66.605,285.608 65.063,285.042 64.738 C 284.744 64.568,284.500 64.380,284.500 64.320 C 284.500 64.261,284.069 64.079,283.542 63.917 C 283.015 63.754,282.494 63.550,282.384 63.464 C 281.432 62.716,267.995 62.479,267.086 63.195 M295.632 62.970 C 295.475 63.032,295.156 63.342,294.923 63.657 L 294.500 64.231 294.500 78.798 C 294.500 95.114,294.413 93.935,295.672 94.586 C 296.389 94.957,312.417 94.956,312.947 94.585 C 313.965 93.872,314.078 90.071,313.113 88.966 C 313.097 88.947,310.496 88.891,307.333 88.841 L 301.583 88.750 301.583 84.750 L 301.583 80.750 306.250 80.667 C 312.062 80.563,311.795 80.676,311.952 78.250 C 312.060 76.587,311.825 75.663,311.151 75.096 L 310.641 74.667 306.071 74.667 L 301.500 74.667 301.500 71.773 L 301.500 68.879 302.273 68.773 C 302.699 68.714,305.237 68.667,307.914 68.667 C 313.917 68.667,313.417 68.932,313.417 65.750 C 313.417 62.488,314.488 62.831,304.349 62.845 C 299.711 62.851,295.788 62.908,295.632 62.970 M117.581 63.332 C 118.507 63.684,118.500 63.589,118.500 76.649 C 118.500 87.330,118.529 88.672,118.762 88.905 C 118.986 89.129,119.629 89.167,123.239 89.167 C 129.689 89.167,129.431 89.038,129.304 92.184 C 129.206 94.635,130.005 94.408,121.288 94.467 C 112.878 94.524,113.337 94.570,112.766 93.596 L 112.333 92.857 112.333 78.632 C 112.333 63.319,112.294 64.059,113.140 63.375 C 113.455 63.120,116.934 63.086,117.581 63.332 M138.247 63.332 C 139.197 63.693,139.178 63.360,139.129 79.045 C 139.079 94.926,139.150 93.969,137.993 94.316 C 137.200 94.553,134.468 94.554,133.948 94.317 C 132.973 93.873,133.000 94.317,133.000 78.698 C 133.000 63.313,132.961 64.059,133.806 63.375 C 134.122 63.120,137.600 63.086,138.247 63.332 M178.398 63.326 C 179.292 63.666,179.333 63.972,179.334 70.283 C 179.335 75.559,179.362 76.124,179.632 76.532 L 179.928 76.981 180.672 76.037 C 181.082 75.518,181.492 74.936,181.583 74.745 C 181.750 74.396,181.929 74.153,183.174 72.586 C 183.537 72.130,183.833 71.668,183.833 71.560 C 183.833 71.453,184.077 71.060,184.375 70.686 C 185.187 69.669,185.825 68.809,186.180 68.250 C 186.354 67.975,186.759 67.412,187.079 67.000 C 187.399 66.587,187.811 65.987,187.995 65.667 C 188.179 65.346,188.703 64.671,189.159 64.167 L 189.989 63.250 191.925 63.194 C 194.344 63.123,194.581 63.183,194.980 63.960 L 195.299 64.582 194.873 65.333 C 194.638 65.746,194.242 66.308,193.992 66.583 C 193.742 66.858,193.424 67.309,193.286 67.584 C 193.147 67.859,192.876 68.227,192.684 68.401 C 192.491 68.576,192.333 68.814,192.333 68.930 C 192.333 69.047,192.165 69.279,191.958 69.446 C 191.752 69.613,191.471 69.909,191.333 70.103 C 191.077 70.465,189.340 72.691,188.618 73.583 C 188.396 73.858,188.092 74.320,187.944 74.610 C 187.795 74.900,187.606 75.162,187.523 75.193 C 187.295 75.279,186.170 76.803,185.995 77.262 C 185.814 77.740,185.932 78.104,186.450 78.665 C 186.661 78.893,186.834 79.156,186.835 79.248 C 186.836 79.341,187.135 79.792,187.500 80.250 C 187.865 80.708,188.164 81.168,188.165 81.271 C 188.166 81.375,188.285 81.557,188.430 81.677 C 188.574 81.798,188.876 82.257,189.099 82.698 C 189.323 83.139,189.578 83.500,189.666 83.500 C 189.754 83.500,189.985 83.811,190.179 84.190 C 190.372 84.570,190.674 85.034,190.849 85.222 C 191.024 85.409,191.167 85.644,191.167 85.743 C 191.167 85.842,191.467 86.286,191.833 86.730 C 192.200 87.173,192.500 87.631,192.500 87.748 C 192.500 87.864,192.618 88.057,192.763 88.177 C 192.908 88.298,193.209 88.757,193.432 89.198 C 193.656 89.639,193.914 90.000,194.005 90.000 C 194.096 90.000,194.339 90.356,194.544 90.792 C 194.749 91.227,194.959 91.621,195.010 91.667 C 195.357 91.978,195.667 92.655,195.667 93.102 C 195.667 94.921,190.425 95.183,189.335 93.419 C 189.134 93.095,188.771 92.619,188.527 92.361 C 188.283 92.104,187.858 91.499,187.583 91.017 C 187.308 90.535,186.917 89.903,186.715 89.612 C 186.512 89.321,186.153 88.746,185.917 88.333 C 185.463 87.541,184.899 86.694,184.360 85.995 C 184.181 85.763,183.915 85.285,183.768 84.934 C 183.621 84.583,183.282 84.046,183.015 83.742 C 182.748 83.438,182.480 83.034,182.420 82.844 C 182.360 82.655,182.249 82.500,182.174 82.500 C 182.098 82.500,181.922 82.219,181.783 81.875 C 181.644 81.531,181.390 81.100,181.219 80.917 C 181.048 80.733,180.728 80.321,180.508 80.000 C 180.288 79.679,180.084 79.386,180.055 79.348 C 180.026 79.311,179.852 79.416,179.668 79.582 C 179.344 79.876,179.333 80.090,179.333 86.423 C 179.333 94.827,179.464 94.500,176.101 94.500 C 172.900 94.500,173.167 95.930,173.167 78.752 C 173.167 61.593,172.870 63.167,176.104 63.167 C 177.135 63.167,178.167 63.238,178.398 63.326 M216.931 63.718 L 217.333 64.185 217.333 69.317 C 217.333 74.322,217.342 74.456,217.684 74.766 C 218.145 75.183,228.565 75.264,229.058 74.855 C 229.303 74.651,229.333 74.075,229.333 69.652 C 229.333 63.040,229.273 63.165,232.466 63.169 C 236.008 63.173,235.667 61.510,235.667 78.750 C 235.667 95.895,235.944 94.501,232.534 94.499 C 229.316 94.498,229.333 94.540,229.333 86.792 C 229.333 82.302,229.282 80.682,229.133 80.533 C 228.783 80.183,218.030 80.254,217.638 80.609 C 217.353 80.867,217.333 81.291,217.333 87.115 C 217.333 94.851,217.481 94.500,214.233 94.500 C 210.962 94.500,211.259 96.024,211.206 78.955 C 211.151 61.528,210.834 63.106,214.373 63.196 C 216.500 63.249,216.535 63.256,216.931 63.718 M260.470 63.312 C 261.083 63.700,261.174 67.547,260.584 68.138 C 260.523 68.200,257.978 68.287,254.928 68.333 C 248.136 68.435,248.833 68.055,248.833 71.661 C 248.833 75.409,248.328 75.069,254.005 75.135 C 259.377 75.197,258.917 74.948,258.917 77.789 C 258.917 80.551,259.349 80.333,253.856 80.333 C 248.240 80.333,248.833 79.815,248.833 84.721 C 248.833 89.732,248.059 89.167,254.922 89.167 C 261.546 89.167,260.917 88.887,260.917 91.833 C 260.917 94.819,261.947 94.500,252.302 94.500 C 243.213 94.500,243.668 94.560,243.071 93.278 L 242.670 92.417 242.668 78.766 L 242.667 65.115 243.081 64.239 C 243.309 63.757,243.591 63.324,243.706 63.278 C 244.069 63.132,260.238 63.164,260.470 63.312 M280.774 63.521 C 280.944 63.669,281.594 63.890,282.218 64.011 C 282.841 64.132,283.585 64.386,283.870 64.574 C 284.156 64.762,284.595 65.029,284.847 65.167 C 287.463 66.595,289.068 72.782,287.506 75.417 C 287.343 75.692,287.161 76.123,287.102 76.375 C 286.958 76.984,284.907 79.087,284.149 79.402 C 283.819 79.539,283.302 79.932,283.000 80.275 L 282.452 80.899 282.834 81.158 C 283.174 81.389,284.420 82.627,285.302 83.611 C 285.480 83.809,285.748 84.329,285.897 84.767 C 286.046 85.205,286.307 85.718,286.476 85.907 C 286.645 86.095,286.879 86.605,286.996 87.038 C 287.113 87.472,287.311 87.912,287.437 88.017 C 287.563 88.121,287.815 88.689,287.997 89.279 C 288.179 89.869,288.440 90.464,288.577 90.600 C 288.929 90.952,289.333 92.420,289.333 93.343 C 289.333 94.413,289.027 94.524,286.255 94.464 L 284.105 94.417 283.467 93.500 C 283.116 92.996,282.749 92.283,282.652 91.917 C 282.555 91.550,282.293 90.970,282.071 90.629 C 281.849 90.287,281.667 89.907,281.667 89.786 C 281.667 89.664,281.404 89.044,281.084 88.407 C 280.763 87.771,280.501 87.129,280.501 86.982 C 280.500 86.834,280.312 86.436,280.082 86.097 C 279.852 85.758,279.518 85.194,279.339 84.845 C 279.053 84.284,278.805 84.027,277.654 83.098 C 277.145 82.688,276.269 82.500,274.863 82.500 C 272.688 82.500,272.833 82.105,272.833 88.031 C 272.833 94.637,272.904 94.500,269.476 94.500 C 266.423 94.500,266.666 95.852,266.670 78.883 L 266.673 64.750 267.174 63.953 L 267.674 63.155 274.070 63.203 C 279.689 63.244,280.503 63.283,280.774 63.521 M312.637 63.312 C 312.936 63.501,313.159 64.541,313.159 65.750 C 313.159 68.442,313.422 68.324,307.333 68.351 C 304.537 68.363,302.025 68.421,301.750 68.480 L 301.250 68.586 301.205 71.603 C 301.147 75.459,300.599 75.070,306.180 75.135 C 311.543 75.197,311.083 74.948,311.083 77.789 C 311.083 80.551,311.519 80.333,306.001 80.333 C 302.774 80.333,301.512 80.388,301.367 80.533 C 301.222 80.678,301.167 81.848,301.167 84.750 C 301.167 87.652,301.222 88.822,301.367 88.967 C 301.514 89.114,303.018 89.167,307.096 89.167 C 313.712 89.167,313.083 88.887,313.083 91.833 C 313.083 93.381,313.022 94.023,312.855 94.224 C 312.454 94.707,296.305 94.638,295.819 94.152 C 294.802 93.136,294.841 93.742,294.837 78.733 L 294.833 65.050 295.267 64.233 C 295.506 63.784,295.787 63.362,295.892 63.294 C 296.159 63.123,312.366 63.140,312.637 63.312 M273.667 68.445 C 272.834 68.618,272.833 68.620,272.833 72.833 C 272.833 76.262,272.869 76.822,273.101 77.014 C 273.809 77.602,279.333 77.290,279.333 76.662 C 279.333 76.573,279.436 76.500,279.561 76.500 C 281.792 76.500,282.497 71.360,280.516 69.529 C 279.456 68.550,275.885 67.985,273.667 68.445 M279.080 69.214 C 279.445 69.463,279.809 69.667,279.888 69.667 C 280.327 69.667,281.143 70.949,281.250 71.806 C 281.380 72.845,281.207 74.667,280.978 74.667 C 280.892 74.667,280.670 74.925,280.483 75.241 C 280.265 75.611,279.933 75.884,279.550 76.011 C 279.222 76.119,278.684 76.393,278.352 76.620 C 277.738 77.040,273.989 77.158,273.375 76.776 C 273.218 76.679,273.167 75.688,273.167 72.751 L 273.167 68.854 273.708 68.778 C 275.517 68.523,278.411 68.758,279.080 69.214 " stroke="none" fill="#cccccc" fill-rule="evenodd"></path></g></svg>